<?xml version="1.0" encoding="utf-8"?>
<!-- Generator: Adobe Illustrator 18.0.0, SVG Export Plug-In . SVG Version: 6.00 Build 0)  -->
<!DOCTYPE svg PUBLIC "-//W3C//DTD SVG 1.1//EN" "http://www.w3.org/Graphics/SVG/1.1/DTD/svg11.dtd">
<svg version="1.1" id="Слой_2" xmlns="http://www.w3.org/2000/svg" xmlns:xlink="http://www.w3.org/1999/xlink" x="0px" y="0px"
	 viewBox="0 572 1590 238.4" enable-background="new 0 572 1590 238.4" xml:space="preserve">
<path fill="#000000"    d="M1585.4,766.3v-18.7h-18.3v-35.2h-21.3v-32.1h-7.6
	v-7.2h-13v7.2h-5.3v63.1h-5.3v-24.2h-19.2V730h-8.1v-10.9h-5.3v-19.2h-16.6v8.9h-19.9v9.1h-6.9v-17.4h-9.8v-3.8h-10.7v3.8h-6.9v5.6
	h-3.3v-13.4h-30.7v22.8h-17.9v-6.6H1345v6.6h-8.9V686h-6.6v-7.4h-10.2v7.4h-5.8v22.8h-5.3v-2.7h-12.1v-21.9h-5.8v-5.8h-9v5.8h-2.7
	v-13h-20v13h-8.5v-5.8h-9.7v5.8h-6.9v8.5h-2.9V719h-7.7v-29.4h-5.3v-24.8h-4.9v-15.4h-14.3v15.4h-11.3v19.3h-9.3v5.3h-11.1v19.2
	h-6.6v18.3h-8.9v-42.8h-27.2v8.5h-8.9v31.1h-8.9v-27h-4.5v-9.8h-7.2v-6.6h-7.6v-15.4h-28.5v-79.6h-43.2v181h-5.8v-66.9h-13.4v-55.6
	h-21.9v-16.4h-32.3v16.4h-5.8v40.5h-24.5v-47.7h-38.3v-2.6h-38.8v9.8h-12.1v31.1h-8.9v45.4H811v25.3h-6.2v20.7h-17v-23.5h-6.6V640.1
	h-70.9v49.4h-4.5v35.2h-7.2v5.2h-4.9v-17.6h-8.5v-19.6h-5.8v-8.5h-7.2v-9.4h-8.1v9.4h-5.8v-27.7h-17.9v-29.4h-2.7v-6.2h-22.3v6.2
	h-8.5v66.9h-8.9v19.3h-8.9v-58.6h-8.1v-5.3h-30.7v5.3h-8.9v37.9h-4.9v-17.9h-28.5v-27.7h-9.8V640h-24.1v7.2h-13v15.6h-8.9V640h-10.7
	v-9.8h-12.5v9.8h-15.9v64.1h-22.3v8.1h-20.5v-18.2h-22.8v-9.8h-18.3v-22.8h-11.1v-9.8h3.6v-2.5h4v-3h3.4v-4.8h2.3v-7.2h-11V627
	h-10.2v-35.6l0,0V627h-10.2v7.2h-10.9v7.2h2.1v4.8h3.4v3h4.2v2.5h3.2v9.8h-16.4v32.6h-9.5v13.8h-5.6v-6.6h-4v-7.2h-10.2v7.2h-14.3
	v39.2h-4v-50h-6.2V682h-25.4v8.5h-7.6v50h-8.1v-30.3h-5.8v-4h-16.3v6.2h-9.1v-21.9h-43.7v33h-24v25.4h-9.4v-25.4H67.6v-22.3H43.1v36
	H25.2v29H0.7v44.1h1590v-44.1L1585.4,766.3L1585.4,766.3z"/>
</svg>
